<svg data-v-423bf9ae="" xmlns="http://www.w3.org/2000/svg" viewBox="0 0 360 90" class="iconLeft"><!----><!----><!----><g data-v-423bf9ae="" id="107b7455-b375-4a88-9a1b-22285bf94ac4" fill="#ffffff" transform="matrix(6.03621768951416,0,0,6.03621768951416,95.6539306640625,-1.9014084339141846)"><path d="M1.24 12.61L1.24 2.95L8.09 2.95L8.09 4.54L2.98 4.54L2.98 6.98L7.49 6.98L7.49 8.57L2.98 8.57L2.98 12.61L1.24 12.61ZM12.29 12.74L12.29 12.74Q11.27 12.74 10.47 12.26L10.47 12.26L10.47 12.26Q9.67 11.78 9.23 10.96L9.23 10.96L9.23 10.96Q8.79 10.14 8.79 9.17L8.79 9.17L8.79 9.17Q8.79 8.21 9.23 7.40L9.23 7.40L9.23 7.40Q9.67 6.59 10.47 6.11L10.47 6.11L10.47 6.11Q11.27 5.63 12.29 5.63L12.29 5.63L12.29 5.63Q13.32 5.63 14.12 6.11L14.12 6.11L14.12 6.11Q14.92 6.59 15.35 7.40L15.35 7.40L15.35 7.40Q15.79 8.21 15.79 9.17L15.79 9.17L15.79 9.17Q15.79 10.14 15.35 10.96L15.35 10.96L15.35 10.96Q14.92 11.78 14.12 12.26L14.12 12.26L14.12 12.26Q13.32 12.74 12.29 12.74L12.29 12.74ZM12.29 11.31L12.29 11.31Q12.89 11.31 13.29 11.02L13.29 11.02L13.29 11.02Q13.69 10.73 13.87 10.24L13.87 10.24L13.87 10.24Q14.05 9.76 14.05 9.17L14.05 9.17L14.05 9.17Q14.05 8.26 13.62 7.67L13.62 7.67L13.62 7.67Q13.19 7.08 12.29 7.08L12.29 7.08L12.29 7.08Q11.69 7.08 11.29 7.36L11.29 7.36L11.29 7.36Q10.90 7.64 10.71 8.11L10.71 8.11L10.71 8.11Q10.53 8.59 10.53 9.17L10.53 9.17L10.53 9.17Q10.53 9.76 10.71 10.24L10.71 10.24L10.71 10.24Q10.90 10.73 11.29 11.02L11.29 11.02L11.29 11.02Q11.69 11.31 12.29 11.31L12.29 11.31ZM17.14 12.61L17.14 5.78L18.80 5.78L18.80 6.57L18.80 6.57Q19.19 6.10 19.73 5.87L19.73 5.87L19.73 5.87Q20.27 5.63 20.82 5.63L20.82 5.63L20.82 5.63Q21.66 5.63 22.22 6.04L22.22 6.04L22.22 6.04Q22.78 6.44 23.03 7.09L23.03 7.09L23.03 7.09Q23.29 7.75 23.29 8.50L23.29 8.50L23.29 12.61L21.64 12.61L21.64 8.72L21.64 8.72Q21.64 8.03 21.30 7.60L21.30 7.60L21.30 7.60Q20.96 7.17 20.34 7.17L20.34 7.17L20.34 7.17Q19.61 7.17 19.20 7.59L19.20 7.59L19.20 7.59Q18.80 8.00 18.80 8.87L18.80 8.87L18.80 12.61L17.14 12.61ZM25.48 12.61L25.48 7.17L24.23 7.17L24.23 5.78L25.49 5.78L25.49 4.86L25.49 4.86Q25.49 4.22 25.79 3.75L25.79 3.75L25.79 3.75Q26.09 3.29 26.58 3.05L26.58 3.05L26.58 3.05Q27.08 2.80 27.67 2.80L27.67 2.80L27.67 2.80Q28.28 2.80 28.91 3.08L28.91 3.08L28.36 4.46L28.36 4.46Q28.08 4.29 27.83 4.29L27.83 4.29L27.83 4.29Q27.56 4.29 27.38 4.47L27.38 4.47L27.38 4.47Q27.20 4.66 27.20 5.03L27.20 5.03L27.20 5.78L28.79 5.78L28.79 7.17L27.20 7.17L27.20 12.61L25.48 12.61ZM32.64 12.74L32.64 12.74Q31.62 12.74 30.82 12.26L30.82 12.26L30.82 12.26Q30.02 11.78 29.58 10.96L29.58 10.96L29.58 10.96Q29.14 10.14 29.14 9.17L29.14 9.17L29.14 9.17Q29.14 8.21 29.58 7.40L29.58 7.40L29.58 7.40Q30.02 6.59 30.82 6.11L30.82 6.11L30.82 6.11Q31.62 5.63 32.64 5.63L32.64 5.63L32.64 5.63Q33.67 5.63 34.47 6.11L34.47 6.11L34.47 6.11Q35.27 6.59 35.70 7.40L35.70 7.40L35.70 7.40Q36.14 8.21 36.14 9.17L36.14 9.17L36.14 9.17Q36.14 10.14 35.70 10.96L35.70 10.96L35.70 10.96Q35.27 11.78 34.47 12.26L34.47 12.26L34.47 12.26Q33.67 12.74 32.64 12.74L32.64 12.74ZM32.64 11.31L32.64 11.31Q33.24 11.31 33.64 11.02L33.64 11.02L33.64 11.02Q34.04 10.73 34.22 10.24L34.22 10.24L34.22 10.24Q34.41 9.76 34.41 9.17L34.41 9.17L34.41 9.17Q34.41 8.26 33.97 7.67L33.97 7.67L33.97 7.67Q33.54 7.08 32.64 7.08L32.64 7.08L32.64 7.08Q32.04 7.08 31.64 7.36L31.64 7.36L31.64 7.36Q31.25 7.64 31.06 8.11L31.06 8.11L31.06 8.11Q30.88 8.59 30.88 9.17L30.88 9.17L30.88 9.17Q30.88 9.76 31.06 10.24L31.06 10.24L31.06 10.24Q31.25 10.73 31.64 11.02L31.64 11.02L31.64 11.02Q32.04 11.31 32.64 11.31L32.64 11.31ZM37.50 12.61L37.50 5.78L39.15 5.78L39.15 6.57L39.15 6.57Q39.54 6.10 40.08 5.87L40.08 5.87L40.08 5.87Q40.62 5.63 41.17 5.63L41.17 5.63L41.17 5.63Q42.01 5.63 42.57 6.04L42.57 6.04L42.57 6.04Q43.13 6.44 43.38 7.09L43.38 7.09L43.38 7.09Q43.64 7.75 43.64 8.50L43.64 8.50L43.64 12.61L41.99 12.61L41.99 8.72L41.99 8.72Q41.99 8.03 41.65 7.60L41.65 7.60L41.65 7.60Q41.31 7.17 40.69 7.17L40.69 7.17L40.69 7.17Q39.96 7.17 39.55 7.59L39.55 7.59L39.55 7.59Q39.15 8.00 39.15 8.87L39.15 8.87L39.15 12.61L37.50 12.61Z"></path></g><!----><g data-v-423bf9ae="" id="f41ea245-7a52-47ff-8772-1f9169cbbac9" transform="matrix(1.0008268356323242,0,0,1.0008268356323242,-8.576729774475098,-5.00417423248291)" stroke="none" fill="#FCB826"><path d="M90.1 75.1l-.5-1c-1.4-3.3-18.6-8.3-20-8.4l-1.1.1c-2.1.4-4.4 2.3-8.9 6.2-.9.8-2.1 1-3.2.4-5.9-3.3-13.1-9.9-16.7-13.9-3.9-4.3-8.6-11.4-10.8-17.1-.4-1.1 0-2.3.8-3.1 5.1-4.6 7.3-6.8 7.5-9.2.1-1.4-2.9-19.1-6-20.8l-.9-.6c-2-1.3-5-3.2-8.3-2.5-.8.2-1.6.5-2.3.9-2.2 1.4-7.7 5.2-10.2 10.1C8 19.3 7.3 47.4 28.3 71.1c20.8 23.5 46.5 24.5 50.3 23.7h.1l.3-.1c5.2-1.9 9.6-6.8 11.3-8.9 3.1-3.7 1-8.2-.2-10.7z"></path></g><!----></svg>