<?xml version="1.0" encoding="UTF-8" standalone="no"?>
<svg
   data-v-fde0c5aa=""
   viewBox="0 0 200 100" width="200" height="100"    class="iconLeft" 
   version="1.1"
   id="svg3"
   sodipodi:docname="header.svg"
   inkscape:version="1.3 (0e150ed6c4, 2023-07-21)"
   xmlns:inkscape="http://www.inkscape.org/namespaces/inkscape"
   xmlns:sodipodi="http://sodipodi.sourceforge.net/DTD/sodipodi-0.dtd"
   xmlns="http://www.w3.org/2000/svg"
   xmlns:svg="http://www.w3.org/2000/svg">
  <sodipodi:namedview
     id="namedview3"
     pagecolor="#ffffff"
     bordercolor="#000000"
     borderopacity="0.25"
     inkscape:showpageshadow="2"
     inkscape:pageopacity="0.0"
     inkscape:pagecheckerboard="0"
     inkscape:deskcolor="#d1d1d1"
     inkscape:zoom="2.71"
     inkscape:cx="150"
     inkscape:cy="150"
     inkscape:window-width="1920"
     inkscape:window-height="1011"
     inkscape:window-x="0"
     inkscape:window-y="32"
     inkscape:window-maximized="1"
     inkscape:current-layer="svg3" />
  <!---->
  <defs
     data-v-fde0c5aa=""
     id="defs1">
    <!---->
  </defs>
  <rect
     data-v-fde0c5aa=""
     fill="#28003a"
     x="0"
     y="0"
     width="236.12436"
     height="58.389404"
     class="logo-background-square"
     id="rect1"
     style="stroke-width:0.391395" />
  <defs
     data-v-fde0c5aa=""
     id="defs2">
    <!---->
  </defs>
  <g
     data-v-fde0c5aa=""
     id="d40b7917-d1f6-40a4-b7aa-851b01fd5253"
     fill="#ffffff"
     transform="matrix(2.7215691,0,0,2.7215691,58.252975,12.124564)">
    <path
       d="m 4.2,3.19 v 0 0 q 0.45,0 0.77,0.05 v 0 0 Q 5.29,3.29 5.5,3.35 v 0 0 Q 5.75,3.42 5.92,3.5 v 0 0.99 0 Q 5.29,4.28 4.61,4.26 v 0 0 Q 3.93,4.23 3.36,4.48 v 0 0 Q 2.79,4.73 2.42,5.32 v 0 0 Q 2.04,5.91 2.04,6.93 v 0 0 q 0,1.04 0.38,1.62 v 0 0 q 0.37,0.59 0.94,0.84 v 0 0 q 0.57,0.24 1.26,0.2 v 0 0 Q 5.31,9.55 5.92,9.31 v 0 1.01 0 Q 5.75,10.43 5.5,10.5 v 0 0 q -0.21,0.07 -0.53,0.12 v 0 0 Q 4.65,10.67 4.2,10.67 v 0 0 q -0.53,0 -1.15,-0.16 v 0 0 Q 2.44,10.35 1.9,9.93 v 0 0 Q 1.36,9.51 1,8.78 v 0 0 Q 0.64,8.05 0.64,6.93 v 0 0 Q 0.64,5.8 1,5.07 v 0 0 Q 1.36,4.34 1.9,3.93 v 0 0 Q 2.44,3.51 3.05,3.35 v 0 0 Q 3.67,3.19 4.2,3.19 Z m 6.3,0 v 0 0 q 0.77,0.04 1.37,0.32 v 0 0 q 0.25,0.13 0.51,0.31 v 0 0 Q 12.63,4 12.82,4.27 v 0 0 q 0.2,0.27 0.32,0.62 v 0 0 q 0.12,0.36 0.12,0.84 v 0 4.77 H 12.03 L 11.86,9.63 v 0 q 0,0 -0.14,0.17 v 0 0 q -0.14,0.17 -0.41,0.36 v 0 0 q -0.26,0.19 -0.65,0.35 v 0 0 q -0.38,0.16 -0.86,0.16 v 0 0 q -1.16,0 -1.88,-0.53 v 0 0 Q 7.21,9.62 7.21,8.46 v 0 0 q 0,-0.68 0.32,-1.12 v 0 0 Q 7.85,6.9 8.32,6.64 v 0 0 q 0.47,-0.26 1,-0.35 v 0 0 q 0.52,-0.1 0.93,-0.1 v 0 h 1.69 v -0.48 0 Q 11.89,5.07 11.6,4.75 v 0 0 Q 11.31,4.42 10.9,4.32 v 0 0 Q 10.49,4.21 10,4.29 v 0 0 Q 9.52,4.37 9.1,4.5 v 0 0 Q 8.68,4.63 8.37,4.78 v 0 0 Q 8.06,4.93 7.98,4.98 v 0 -1.12 0 Q 8.37,3.68 8.79,3.53 v 0 0 Q 9.16,3.4 9.6,3.3 v 0 0 Q 10.05,3.19 10.5,3.19 Z M 9.91,9.6 v 0 0 q 0.84,0 1.37,-0.39 v 0 0 q 0.54,-0.4 0.66,-1.05 v 0 -1.02 H 11.2 v 0 q -0.27,0 -0.71,0.02 v 0 0 Q 10.05,7.18 9.63,7.29 v 0 0 Q 9.21,7.41 8.9,7.67 v 0 0 Q 8.6,7.92 8.6,8.4 v 0 0 q 0,0.29 0.12,0.52 v 0 0 Q 8.85,9.14 9.04,9.3 v 0 0 q 0.19,0.15 0.42,0.23 v 0 0 Q 9.7,9.6 9.91,9.6 Z m 9.23,-6.41 v 0 0 q 1.4,0 2.04,0.83 v 0 0 q 0.65,0.82 0.65,2.35 v 0 4.13 H 20.5 v -3.77 0 q 0,-1.27 -0.33,-1.87 v 0 0 q -0.32,-0.6 -1.13,-0.6 v 0 0 q -0.56,0 -0.97,0.21 v 0 0 q -0.42,0.21 -0.7,0.59 v 0 0 q -0.28,0.39 -0.42,0.93 v 0 0 q -0.14,0.53 -0.14,1.19 v 0 3.32 H 15.5 V 3.36 h 1.1 l 0.21,1.13 v 0 q 0.34,-0.57 0.98,-0.93 v 0 0 q 0.65,-0.37 1.35,-0.37 z m 7.49,0 v 0 0 q 0.7,0 1.35,0.26 v 0 0 q 0.65,0.26 1.08,0.83 v 0 -2.66 h 1.32 V 10.5 H 29.34 L 29.06,9.49 v -0.01 0 q -0.19,0.35 -0.53,0.6 v 0 0 q -0.28,0.22 -0.75,0.41 v 0 0 q -0.47,0.18 -1.15,0.18 v 0 0 q -0.72,0 -1.28,-0.3 v 0 0 q -0.57,-0.3 -0.96,-0.81 v 0 0 Q 24,9.06 23.79,8.38 v 0 0 Q 23.59,7.7 23.59,6.94 v 0 0 q 0,-0.75 0.2,-1.43 v 0 0 Q 24,4.83 24.39,4.31 v 0 0 q 0.39,-0.52 0.96,-0.82 v 0 0 q 0.56,-0.3 1.28,-0.3 z m 0.29,6.41 v 0 0 q 0.42,0 0.81,-0.16 v 0 0 q 0.38,-0.16 0.68,-0.49 v 0 0 Q 28.7,8.62 28.88,8.12 v 0 0 q 0.18,-0.5 0.18,-1.18 v 0 0 q 0,-0.67 -0.18,-1.17 v 0 0 Q 28.7,5.26 28.41,4.93 v 0 0 Q 28.11,4.59 27.73,4.42 v 0 0 Q 27.34,4.26 26.92,4.26 v 0 0 q -0.39,0 -0.74,0.16 v 0 0 q -0.35,0.17 -0.62,0.51 v 0 0 Q 25.3,5.26 25.14,5.77 v 0 0 q -0.15,0.5 -0.15,1.17 v 0 0 q 0,0.68 0.15,1.18 v 0 0 q 0.16,0.5 0.42,0.83 v 0 0 q 0.27,0.33 0.62,0.49 v 0 0 q 0.35,0.16 0.74,0.16 z m 9.93,-6.24 h 1.51 l -2.67,6.76 v 0 q -0.31,0.81 -0.8,1.44 v 0 0 q -0.21,0.27 -0.49,0.53 v 0 0 q -0.28,0.26 -0.63,0.45 v 0 0 q -0.35,0.2 -0.77,0.33 v 0 0 q -0.42,0.12 -0.93,0.12 v 0 -1.09 0 q 0.75,0 1.19,-0.28 v 0 0 q 0.44,-0.28 0.68,-0.63 v 0 0 q 0.26,-0.39 0.37,-0.91 v 0 L 31.6,3.36 h 1.51 l 1.9,5.82 z m 6.61,-0.17 v 0 0 q 0.71,0 1.28,0.3 v 0 0 q 0.56,0.3 0.96,0.82 v 0 0 q 0.39,0.52 0.59,1.2 v 0 0 q 0.2,0.68 0.2,1.43 v 0 0 q 0,0.76 -0.2,1.44 v 0 0 q -0.2,0.68 -0.59,1.18 v 0 0 q -0.4,0.51 -0.96,0.81 v 0 0 q -0.57,0.3 -1.28,0.3 v 0 0 q -0.69,0 -1.16,-0.18 v 0 0 Q 41.83,10.3 41.55,10.08 v 0 0 Q 41.22,9.83 41.02,9.48 v 0 0.01 L 40.74,10.5 H 39.7 V 1.62 h 1.32 v 2.66 0 q 0.43,-0.57 1.09,-0.83 v 0 0 q 0.65,-0.26 1.35,-0.26 z m -0.3,6.41 v 0 0 q 0.39,0 0.74,-0.16 v 0 0 q 0.35,-0.16 0.62,-0.49 v 0 0 q 0.27,-0.33 0.42,-0.83 v 0 0 q 0.15,-0.5 0.15,-1.18 v 0 0 q 0,-0.67 -0.15,-1.17 v 0 0 Q 44.79,5.26 44.52,4.93 v 0 0 Q 44.25,4.59 43.9,4.42 v 0 0 Q 43.55,4.26 43.16,4.26 v 0 0 q -0.42,0 -0.8,0.16 v 0 0 q -0.39,0.17 -0.68,0.51 v 0 0 q -0.3,0.33 -0.48,0.84 v 0 0 q -0.18,0.5 -0.18,1.17 v 0 0 q 0,0.68 0.18,1.18 v 0 0 q 0.18,0.5 0.48,0.83 v 0 0 q 0.29,0.33 0.68,0.49 v 0 0 q 0.38,0.16 0.8,0.16 z m 7.91,-6.41 v 0 0 q 0.77,0.04 1.37,0.32 v 0 0 q 0.26,0.13 0.51,0.31 v 0 0 Q 53.2,4 53.4,4.27 v 0 0 q 0.19,0.27 0.31,0.62 v 0 0 q 0.12,0.36 0.12,0.84 v 0 4.77 H 52.6 L 52.43,9.63 v 0 q 0,0 -0.14,0.17 v 0 0 q -0.14,0.17 -0.41,0.36 v 0 0 q -0.26,0.19 -0.65,0.35 v 0 0 q -0.38,0.16 -0.86,0.16 v 0 0 q -1.16,0 -1.87,-0.53 v 0 0 Q 47.78,9.62 47.78,8.46 v 0 0 q 0,-0.68 0.32,-1.12 v 0 0 q 0.33,-0.44 0.8,-0.7 v 0 0 q 0.46,-0.26 0.99,-0.35 v 0 0 q 0.52,-0.1 0.93,-0.1 v 0 h 1.69 v -0.48 0 Q 52.46,5.07 52.17,4.75 v 0 0 Q 51.88,4.42 51.47,4.32 v 0 0 Q 51.06,4.21 50.58,4.29 v 0 0 Q 50.09,4.37 49.67,4.5 v 0 0 q -0.42,0.13 -0.73,0.28 v 0 0 q -0.3,0.15 -0.39,0.2 v 0 -1.12 0 q 0.39,-0.18 0.81,-0.33 v 0 0 Q 49.73,3.4 50.18,3.3 v 0 0 Q 50.62,3.19 51.07,3.19 Z M 50.48,9.6 v 0 0 q 0.84,0 1.38,-0.39 v 0 0 q 0.53,-0.4 0.65,-1.05 v 0 -1.02 h -0.74 v 0 q -0.26,0 -0.7,0.02 v 0 0 Q 50.62,7.18 50.2,7.29 v 0 0 q -0.42,0.12 -0.72,0.38 v 0 0 Q 49.17,7.92 49.17,8.4 v 0 0 q 0,0.29 0.12,0.52 v 0 0 q 0.13,0.22 0.32,0.38 v 0 0 q 0.19,0.15 0.43,0.23 v 0 0 q 0.23,0.07 0.44,0.07 z m 9.58,-6.3 v 1.17 0 Q 59.96,4.44 59.85,4.41 v 0 0 Q 59.75,4.38 59.63,4.36 v 0 0 Q 59.51,4.34 59.4,4.34 v 0 0 q -0.6,0 -0.99,0.27 v 0 0 q -0.39,0.28 -0.62,0.7 v 0 0 q -0.22,0.42 -0.31,0.93 v 0 0 q -0.09,0.52 -0.09,1.01 v 0 3.25 H 56.07 V 3.36 h 1.12 l 0.15,1.11 v 0 q 0.2,-0.35 0.44,-0.63 v 0 0 Q 58.02,3.57 58.34,3.4 v 0 0 q 0.32,-0.17 0.74,-0.2 v 0 0 q 0.42,-0.04 0.98,0.1 z"
       id="path2" />
  </g>
  <defs
     data-v-fde0c5aa=""
     id="defs3">
    <!---->
  </defs>
  <g
     data-v-fde0c5aa=""
     id="5e11cab0-026f-4cd1-8768-33547bef35d9"
     stroke="none"
     fill="#e46948"
     transform="matrix(0.48709098,0,0,0.48709098,6.6958642,3.2337374)">
    <path
       d="m 79.097,34.854 -0.518,3.224 -40.284,41.889 -3.408,0.857 -14.988,-14.412 0.455,-3.16 40.445,-42.057 3.31,-0.756 z M 20.672,98.293 32.218,86.287 32.776,83.021 17.787,68.607 14.384,69.459 3,81.297 l 4.928,0.865 0.706,4.553 4.788,0.732 1.126,4.957 4.705,0.649 z M 95.969,19.995 84.422,32.002 81.181,32.687 66.192,18.273 66.911,14.839 78.297,3 l 1.056,4.891 4.578,0.527 0.917,4.758 4.998,0.931 0.832,4.676 z"
       id="path3" />
  </g>
  <!---->
</svg>
